<svg width="42" height="42" viewBox="0 0 42 42" fill="none" xmlns="http://www.w3.org/2000/svg">
<path d="M23.4853 12.2634H14.5484C13.9101 12.2634 13.3427 11.6959 13.3427 11.0576V7.08565C13.3427 6.4473 13.9101 5.87988 14.5484 5.87988H24.8329C25.6131 5.87988 26.1805 6.66009 25.9677 7.44029L24.6201 11.4122C24.4073 11.9087 23.9818 12.2634 23.4853 12.2634Z" fill="#25B459"/>
<path d="M27.3153 12.2634C26.5351 12.2634 25.9677 11.4832 26.1805 10.703L27.4572 6.73101C27.599 6.23452 28.0955 5.87988 28.592 5.87988C29.3722 5.87988 29.9396 6.66009 29.7268 7.44029L28.4501 11.4122C28.3083 11.9087 27.8118 12.2634 27.3153 12.2634Z" fill="#25B459"/>
<path d="M22.2085 36.7333H20.0807C19.0168 36.7333 18.0947 35.8822 18.0947 34.7474V22.9025C18.0947 21.8386 18.9459 20.9165 20.0807 20.9165H22.2085C23.2724 20.9165 24.1945 21.7676 24.1945 22.9025V34.7474C24.1236 35.8822 23.2724 36.7333 22.2085 36.7333ZM20.0807 22.0513C19.5842 22.0513 19.2296 22.4769 19.2296 22.9025V34.7474C19.2296 35.2439 19.6551 35.5985 20.0807 35.5985H22.2085C22.705 35.5985 23.0597 35.1729 23.0597 34.7474V22.9025C23.0597 22.406 22.6341 22.0513 22.2085 22.0513H20.0807V22.0513Z" fill="black"/>
<path d="M21.1447 22.0513C20.8609 22.0513 20.5772 21.8385 20.5772 21.4839V19.6398C20.5772 19.2851 20.3645 19.0014 20.0807 18.8596L11.2148 14.8167C10.5055 14.533 10.08 13.8237 10.08 13.0435V10.561C10.08 9.49713 10.9311 8.646 12.0659 8.646H13.0589C13.3426 8.646 13.6263 8.85878 13.6263 9.21342C13.6263 9.56805 13.4135 9.78084 13.0589 9.78084H12.0659C11.5694 9.78084 11.2148 10.2064 11.2148 10.632V13.1144C11.2148 13.4691 11.4276 13.7528 11.7113 13.8946L20.5772 17.9375C21.2865 18.2212 21.7121 18.9305 21.7121 19.7107V21.5548C21.6411 21.7676 21.4284 22.0513 21.1447 22.0513Z" fill="black"/>
<path d="M31.9257 9.71004H30.649C30.3653 9.71004 30.0815 9.49725 30.0815 9.14262C30.0815 8.78798 30.2943 8.5752 30.649 8.5752H31.9257C32.2094 8.5752 32.4931 8.78798 32.4931 9.14262C32.4931 9.49725 32.2803 9.71004 31.9257 9.71004Z" fill="black"/>
</svg>
