<svg width="16" height="13" viewBox="0 0 16 13" fill="none" xmlns="http://www.w3.org/2000/svg">
<path fill-rule="evenodd" clip-rule="evenodd" d="M8.00008 8C10.2091 8 12 6.20922 12 4.00008C12 1.79093 10.2091 0 8.00008 0C5.79093 0 4 1.79093 4 4.00008C4 6.20922 5.79093 8 8.00008 8ZM10.9829 9.03229C12.8804 9.51117 14.5378 10.4327 15.769 11.6514C16.3033 12.1803 15.85 13 15.0299 13H0.970051C0.149963 13 -0.303319 12.1803 0.231004 11.6514C1.45595 10.4389 3.10292 9.52056 4.98826 9.03965C5.26621 8.96874 5.56777 9.0151 5.79764 9.16558L7.42711 10.2328C7.68179 10.3996 8.03364 10.4077 8.29851 10.2529L10.2129 9.13396C10.4378 9.00239 10.7211 8.96614 10.9829 9.03229Z" fill="#25B459"/>
</svg>
