<svg width="42" height="42" viewBox="0 0 42 42" fill="none" xmlns="http://www.w3.org/2000/svg">
<path d="M9.16891 23.24C10.3674 23.24 11.3389 22.2685 11.3389 21.07C11.3389 19.8716 10.3674 18.9 9.16891 18.9C7.97045 18.9 6.9989 19.8716 6.9989 21.07C6.9989 22.2685 7.97045 23.24 9.16891 23.24Z" fill="#002539"/>
<path d="M21.146 23.24C22.3444 23.24 23.316 22.2685 23.316 21.07C23.316 19.8716 22.3444 18.9 21.146 18.9C19.9475 18.9 18.976 19.8716 18.976 21.07C18.976 22.2685 19.9475 23.24 21.146 23.24Z" fill="#002539"/>
<path d="M33.1286 23.24C34.3271 23.24 35.2986 22.2685 35.2986 21.07C35.2986 19.8716 34.3271 18.9 33.1286 18.9C31.9302 18.9 30.9586 19.8716 30.9586 21.07C30.9586 22.2685 31.9302 23.24 33.1286 23.24Z" fill="#002539"/>
</svg>
