<svg width="42" height="42" viewBox="0 0 42 42" fill="none" xmlns="http://www.w3.org/2000/svg">
<path d="M20.79 35.4456C14.903 35.4456 10.08 30.6226 10.08 24.7356C10.08 21.2601 11.7822 17.9265 14.6902 15.9406C16.4634 14.6639 18.5913 14.0255 20.79 14.0255C26.677 14.0255 31.5001 18.8486 31.5001 24.7356C31.5001 30.6226 26.677 35.4456 20.79 35.4456ZM15.2577 16.8626C12.7043 18.6358 11.1439 21.6148 11.1439 24.7356C11.1439 30.0551 15.4704 34.3817 20.79 34.3817C26.1096 34.3817 30.4362 30.0551 30.4362 24.7356C30.4362 19.416 26.1096 15.0894 20.79 15.0894C18.804 15.0894 16.889 15.7278 15.2577 16.8626Z" fill="black"/>
<path d="M25.9677 7.21646C25.684 6.93275 25.3293 6.71997 24.9038 6.71997H22.7759H18.7331H16.6053C16.1797 6.71997 15.825 6.86182 15.5413 7.21646L13.3426 9.69893C12.8461 10.2663 12.8461 11.0466 13.3426 11.543L19.7261 18.7777C20.2935 19.416 21.2865 19.416 21.8539 18.7777L28.2374 11.543C28.7339 10.9756 28.7339 10.1954 28.2374 9.69893L25.9677 7.21646Z" fill="#25B459"/>
</svg>
