<svg width="17" height="17" viewBox="0 0 17 17" fill="none" xmlns="http://www.w3.org/2000/svg">
<path d="M5.51205 7.43494L7.70774 5.2289H1.5955H1.0955V4.7289V3.12588V2.62588H1.5955H10.2985L10.8987 2.02287H1.5955C0.988352 2.02287 0.5 2.51013 0.5 3.12588V12.4706L1.0955 11.8723V7.93494V7.43494H1.5955H5.51205ZM1.20513 16.2918L3.49927 13.9938L3.64577 13.847H3.85312H14.3595C14.9665 13.847 15.4548 13.3599 15.455 12.7442C15.455 12.7442 15.455 12.7441 15.455 12.744L15.447 3.1263V3.12588C15.447 2.93059 15.4012 2.75854 15.3259 2.62243L15.1449 2.29497L15.408 2.0289L16.2957 1.13126L15.8752 0.708776L0.785223 15.8699L1.20513 16.2918ZM14.0051 3.43842L14.8595 2.58V3.79114V4.7289V5.2289H14.3595H13.4261H12.223L13.0717 4.37618L14.0051 3.43842ZM5.44862 13.244H4.24551L5.09423 12.3913L9.88072 7.58222L10.0273 7.43494H10.2351H14.3595H14.8595V7.93494V12.744V13.244H14.3595H5.44862Z" fill="#25B459" stroke="#25B459"/>
</svg>
