<svg width="42" height="42" viewBox="0 0 42 42" fill="none" xmlns="http://www.w3.org/2000/svg">
<path d="M20.6371 35.5166C22.0557 35.5166 23.1905 34.3818 23.1905 32.9632V20.1963H18.0837V32.9632C18.0837 34.3818 19.2895 35.5166 20.6371 35.5166Z" fill="#25B459"/>
<path d="M22.3394 20.7636H18.8639C18.5802 20.7636 18.2965 20.5508 18.2965 20.1962V14.8057H16.5942V15.4441C16.5942 15.7278 16.3815 16.0115 16.0268 16.0115H12.9769C11.8421 16.0115 10.92 15.0894 10.92 13.9546V8.77687C10.92 7.64202 11.8421 6.71997 12.9769 6.71997H16.0978C16.3815 6.71997 16.6652 6.93275 16.6652 7.28739V7.99666H21.4882C24.7509 7.99666 30.0705 10.5501 30.496 13.9546C30.496 14.1674 30.4251 14.4511 30.2833 14.5929C30.1414 14.8057 29.8577 14.8766 29.6449 14.8766H22.9777V20.2671C22.8359 20.4799 22.6231 20.7636 22.3394 20.7636ZM19.3604 19.6997H21.772V14.3092C21.772 14.0255 21.9847 13.7418 22.3394 13.7418H29.2903C28.7229 11.1175 24.1126 8.98965 21.4173 8.98965H16.0978C15.814 8.98965 15.5303 8.77687 15.5303 8.42223V7.71295H12.9769C12.4095 7.71295 11.984 8.13852 11.984 8.70594V13.8836C11.984 14.4511 12.4095 14.8766 12.9769 14.8766H15.5303V14.2383C15.5303 13.9546 15.7431 13.6709 16.0978 13.6709H18.8639C19.1476 13.6709 19.4313 13.8836 19.4313 14.2383V19.6997H19.3604Z" fill="black"/>
</svg>
